<svg width="1024" height="1024" viewBox="0 0 1024 1024" fill="none" xmlns="http://www.w3.org/2000/svg">
<g clip-path="url(#clip0_1_157)">
<path fill-rule="evenodd" clip-rule="evenodd" d="M513.197 130.547C534.721 125.125 554.472 129.551 572.819 141.434C585.387 149.586 595.444 160.288 603.858 172.62C611.019 183.23 616.744 194.741 620.886 206.853C628.581 228.921 631.526 252.366 629.528 275.651C628.324 291.859 624.291 307.732 617.612 322.549C611.543 335.792 603.47 347.616 592.46 357.284C584.719 364.062 576.093 369.277 566.274 372.38C549.289 377.806 532.636 376.615 516.36 369.633C502.461 363.674 491 354.399 481.172 343.053C474.37 335.117 468.525 326.409 463.757 317.107C460.451 310.763 457.609 304.188 455.253 297.433C449.707 281.499 446.642 265.109 446.056 248.265C445.277 230.468 447.621 212.672 452.982 195.684C457.617 181.309 464.379 168.053 474.134 156.44C481.188 147.905 489.878 140.869 499.694 135.746C499.943 135.445 500.321 135.395 500.628 135.245L501.61 134.868C502.073 134.627 502.655 134.657 502.957 134.161L509.704 131.571C510.265 131.752 510.673 131.326 511.164 131.201L512.159 130.819C512.477 130.697 512.796 130.495 513.197 130.547ZM133.019 555.348C130.927 548.949 129.694 542.347 129.009 535.646C127.69 522.621 128.792 509.872 133.42 497.546C138.296 484.04 147.565 472.561 159.741 464.948C169.863 458.588 181.025 455.35 192.907 454.565C206.573 453.634 219.834 455.904 232.649 460.566C252.516 467.772 269.326 479.578 283.707 494.934C291.241 502.988 297.704 511.823 303.098 521.439C305.712 526.098 307.963 530.929 309.995 535.892C313.846 545.224 316.407 555.038 317.607 565.062C319.165 578.503 318.156 591.66 313.412 604.427C308.286 618.763 298.215 630.802 285.01 638.379C275.077 644.159 264.22 646.994 252.781 647.61C237.389 648.426 222.707 645.305 208.571 639.389C194.93 633.623 182.385 625.548 171.488 615.52C160.702 605.766 151.528 594.365 144.308 581.742L140.591 574.951C139.923 573.955 139.604 572.792 138.913 571.82C138.614 571.411 138.518 570.956 138.324 570.492C138.024 569.957 138.047 569.234 137.47 568.805L134.105 560.039C134.351 559.025 133.734 558.246 133.461 557.367C133.272 556.71 132.841 556.083 133.019 555.348ZM223.637 359.438C217.029 342.018 213.491 325.403 213.516 308.07C213.52 294.981 215.547 282.242 220.495 270.048C225.797 256.876 233.862 245.817 245.546 237.572C257.229 229.328 270.305 225.371 284.539 225.095C297.098 224.874 309.122 227.477 320.718 232.147C339.198 239.584 354.821 251.147 368.362 265.636C376.963 274.846 384.353 284.937 390.533 295.912C394.049 302.124 397.159 308.544 399.862 315.174C403.266 323.517 405.902 332.153 407.736 340.975C411.512 359.45 411.832 377.888 406.812 396.218C403.856 407.543 398.404 418.064 390.855 427.011C382.455 436.938 371.316 444.17 358.831 447.806C347.363 451.241 335.675 451.539 323.912 449.535C308.574 446.936 294.621 440.838 281.676 432.323C266.506 422.212 253.333 409.387 242.82 394.493C236.965 386.349 231.875 377.682 227.615 368.603C226.118 365.625 224.79 362.565 223.637 359.438ZM827.594 300.433L828.368 302.452C834.046 319.515 835.608 337.015 834.151 354.834C833.02 368.75 829.757 382.41 824.476 395.335C817.628 412.003 807.898 426.7 794.153 438.543C786.055 445.664 776.601 451.074 766.358 454.448C751.52 459.424 735.386 458.894 720.907 452.954C708.561 447.984 698.583 439.885 690.305 429.643C682.952 420.492 677.255 410.127 673.472 399.015C664.92 374.505 664.117 349.559 669.657 324.319C671.51 315.8 674.232 307.494 677.782 299.531C685.098 283.175 695.166 268.904 709.239 257.585C717.12 251.159 726.175 246.325 735.899 243.353C750.502 238.833 766.229 239.591 780.329 245.493C793.439 250.883 803.827 259.761 812.331 270.964C817.033 277.138 820.956 283.802 823.977 290.97L824.757 293.003C825.633 295.506 826.57 297.987 827.594 300.433Z" fill="white"/>
<path d="M486.768 71.822C488.3 71.2341 489.85 70.7113 491.413 70.2452C491.465 70.2268 491.517 70.2064 491.57 70.188C493.891 69.3783 497.075 68.4116 500.961 67.6761C540.099 58.8109 576.168 67.8161 606.146 86.7793L607.61 87.7162L607.647 87.7399C628.143 101.034 643.628 117.73 655.579 134.887L656.725 136.549L656.907 136.819C667.153 152.001 675.358 168.462 681.316 185.78C682.573 189.384 683.737 193.015 684.81 196.669C694.871 190.551 705.671 185.691 716.974 182.217L716.974 182.215C717.016 182.203 717.057 182.19 717.099 182.177C717.13 182.167 717.162 182.158 717.193 182.148L717.192 182.148C745.945 173.304 776.881 174.774 804.664 186.301L804.665 186.3C804.791 186.352 804.916 186.404 805.042 186.456L805.041 186.456C830.439 196.987 849.332 213.881 863.247 232.189L863.248 232.189C871.026 242.403 877.726 253.712 882.952 266.113C883.221 266.75 883.479 267.39 883.727 268.035L884.507 270.068C884.735 270.662 884.954 271.26 885.164 271.861C885.702 273.398 886.187 274.664 886.632 275.725C886.877 276.312 887.114 276.903 887.342 277.497L888.117 279.516C888.463 280.418 888.79 281.329 889.095 282.246C897.891 308.68 899.984 334.974 897.94 360.017L897.941 360.018C896.279 380.472 891.483 400.548 883.721 419.544C883.705 419.582 883.689 419.619 883.674 419.657C873.679 443.985 858.549 467.537 835.931 487.027L835.93 487.026C821.546 499.561 804.815 509.112 786.707 515.124L786.707 515.126C786.654 515.144 786.6 515.161 786.546 515.179C786.49 515.197 786.434 515.217 786.378 515.236L786.377 515.234C757.19 524.935 725.501 523.903 697.009 512.323L697.009 512.324C696.974 512.31 696.939 512.295 696.904 512.281C696.808 512.242 696.712 512.204 696.617 512.165L696.616 512.164C672.637 502.425 654.326 486.942 640.53 469.872C640.492 469.826 640.455 469.779 640.418 469.733C628.677 455.124 619.52 438.62 613.334 420.935C604.973 425.904 595.795 430.152 585.748 433.344L585.748 433.345C585.71 433.358 585.671 433.369 585.632 433.381C585.608 433.389 585.584 433.398 585.559 433.405L585.559 433.405C553.019 443.748 520.566 441.079 491.127 428.449L491.127 428.448C482.698 424.833 474.931 420.588 467.771 415.888C462.225 435.113 452.691 452.969 439.77 468.282C439.75 468.306 439.73 468.33 439.711 468.353C423.188 487.878 401.281 502.103 376.725 509.255L376.724 509.254C374.165 510.01 371.613 510.683 369.07 511.274C369.098 511.342 369.127 511.41 369.155 511.478L369.156 511.478C375.226 526.187 379.261 541.655 381.153 557.455C381.162 557.533 381.172 557.612 381.181 557.69C383.664 579.106 382.303 602.569 373.534 626.364C363.281 654.748 343.327 678.595 317.196 693.694L317.198 693.696C317.099 693.754 316.998 693.81 316.899 693.867C316.886 693.875 316.874 693.883 316.861 693.89L316.86 693.889C296.993 705.371 276.101 710.447 256.22 711.517C256.203 711.518 256.186 711.519 256.17 711.52C229.609 712.928 205.32 707.407 183.864 698.429C183.793 698.399 183.722 698.369 183.651 698.339C163.406 689.781 144.777 677.824 128.563 662.989L128.562 662.99C112.764 648.704 99.3275 632.006 88.7528 613.516C88.5549 613.17 88.3605 612.822 88.1691 612.472L85.0376 606.751C84.2278 605.357 83.5893 604.156 83.1196 603.234C83.0598 603.117 83.0045 603 82.9483 602.888C81.6762 600.62 80.7082 598.59 79.996 596.958C79.1632 595.258 78.4032 593.517 77.7211 591.74L74.3565 582.975L73.9317 581.836C73.1416 579.654 72.475 577.438 71.9289 575.198C71.4565 573.672 70.9161 571.729 70.4265 569.429C67.7334 559.834 66.2051 550.614 65.3404 542.151L65.3352 542.096C63.2259 521.275 64.7768 498.457 73.3929 475.35C83.1751 448.578 101.606 425.827 125.777 410.704C139.572 402.051 154.05 396.537 168.551 393.468C166.786 389.695 165.177 385.851 163.726 381.946C154.978 358.831 149.487 334.533 149.515 308.049C149.522 288.342 152.589 267.258 161.127 246.148L161.125 246.147C170.37 223.183 185.545 201.582 208.646 185.281C231.226 169.347 256.494 161.848 282.077 161.135L283.295 161.107L283.416 161.105C305.796 160.712 326.327 165.412 344.612 172.774L345.945 173.317C360.981 179.503 374.505 187.374 386.677 196.413C388.113 189.68 389.871 183.008 391.95 176.422L392.07 176.044C398.783 155.225 409.161 134.285 425.131 115.274L425.131 115.275C436.819 101.232 451.018 89.4991 466.994 80.6701C470.37 78.6401 473.239 77.3313 475.109 76.5383C476.711 75.764 478.349 75.0538 480.021 74.4122L486.768 71.822ZM735.899 243.354C726.174 246.326 717.12 251.159 709.239 257.585C695.167 268.904 685.098 283.175 677.782 299.531C674.232 307.494 671.51 315.801 669.657 324.32C664.117 349.559 664.92 374.505 673.472 399.015C677.256 410.127 682.952 420.492 690.305 429.642C698.584 439.885 708.561 447.985 720.907 452.954C735.386 458.894 751.52 459.424 766.359 454.448C776.601 451.075 786.056 445.664 794.153 438.543C807.898 426.7 817.627 412.003 824.475 395.335C829.756 382.41 833.02 368.75 834.151 354.834C835.608 337.015 834.045 319.514 828.368 302.451L827.593 300.433C826.57 297.987 825.634 295.506 824.758 293.003L823.977 290.97C820.956 283.802 817.033 277.138 812.331 270.964C803.827 259.761 793.439 250.883 780.33 245.493C766.229 239.591 750.501 238.833 735.899 243.354ZM192.907 454.565C181.025 455.35 169.863 458.588 159.74 464.948C147.565 472.56 138.297 484.04 133.42 497.546C128.792 509.872 127.689 522.621 129.009 535.646C129.693 542.347 130.927 548.949 133.018 555.348C132.84 556.083 133.272 556.71 133.461 557.367C133.734 558.246 134.351 559.025 134.106 560.039L137.47 568.804C138.047 569.233 138.023 569.956 138.324 570.491C138.518 570.956 138.614 571.411 138.913 571.82C139.604 572.792 139.923 573.955 140.591 574.952L144.309 581.741C151.529 594.365 160.702 605.766 171.489 615.52C182.386 625.548 194.93 633.623 208.57 639.39C222.707 645.305 237.389 648.426 252.781 647.61C264.22 646.994 275.077 644.159 285.01 638.379C298.215 630.802 308.286 618.764 313.412 604.427C318.156 591.661 319.166 578.503 317.607 565.062C316.407 555.038 313.846 545.224 309.995 535.892C307.963 530.929 305.712 526.098 303.098 521.438C297.705 511.823 291.241 502.988 283.708 494.935C269.326 479.579 252.515 467.772 232.648 460.566C219.834 455.904 206.573 453.634 192.907 454.565ZM98.5919 619.642L99.2945 620.173L98.4968 619.569C98.5285 619.593 98.5601 619.618 98.5919 619.642ZM97.6386 618.897C97.8156 619.038 97.9946 619.178 98.1746 619.318C97.9952 619.178 97.8163 619.039 97.6386 618.897ZM96.9419 618.333C97.0694 618.438 97.1969 618.543 97.326 618.647C97.1971 618.543 97.0698 618.438 96.9419 618.333ZM502.956 134.161C502.655 134.657 502.073 134.627 501.61 134.868L500.628 135.245C500.321 135.395 499.943 135.444 499.694 135.746C489.878 140.869 481.188 147.906 474.134 156.441C464.379 168.054 457.617 181.309 452.982 195.684C447.621 212.672 445.276 230.468 446.055 248.265C446.641 265.109 449.708 281.499 455.253 297.433C457.609 304.188 460.451 310.763 463.757 317.107C468.525 326.409 474.37 335.118 481.172 343.053C491 354.399 502.46 363.674 516.36 369.633C532.635 376.616 549.289 377.806 566.274 372.381C576.092 369.278 584.72 364.062 592.46 357.283C603.47 347.616 611.544 335.792 617.612 322.549C624.291 307.732 628.323 291.859 629.527 275.651C631.526 252.366 628.581 228.921 620.885 206.853C616.744 194.741 611.019 183.23 603.858 172.62C595.444 160.288 585.387 149.586 572.819 141.434C554.472 129.552 534.721 125.125 513.198 130.547C512.797 130.495 512.478 130.697 512.16 130.819L511.164 131.201C510.673 131.326 510.265 131.752 509.704 131.571L502.956 134.161ZM284.539 225.095C270.304 225.372 257.229 229.328 245.545 237.573C233.862 245.817 225.798 256.876 220.495 270.048C215.547 282.242 213.52 294.981 213.516 308.07C213.491 325.403 217.029 342.018 223.637 359.438C224.79 362.565 226.118 365.625 227.615 368.603C231.876 377.682 236.966 386.35 242.82 394.493C253.333 409.387 266.506 422.212 281.676 432.323C294.621 440.838 308.574 446.936 323.912 449.535C335.675 451.539 347.363 451.241 358.831 447.807C371.316 444.171 382.455 436.937 390.856 427.01C398.404 418.064 403.856 407.543 406.812 396.217C411.832 377.888 411.512 359.451 407.736 340.976C405.901 332.154 403.266 323.517 399.862 315.173C397.159 308.544 394.048 302.123 390.532 295.912C384.353 284.937 376.963 274.845 368.362 265.636C354.821 251.147 339.198 239.584 320.718 232.147C309.122 227.477 297.097 224.875 284.539 225.095ZM529.358 70.664C528.996 70.5473 528.634 70.4361 528.272 70.3266C528.634 70.4364 528.997 70.5476 529.358 70.664ZM448.846 99.9879C448.656 100.288 448.468 100.59 448.282 100.895C448.467 100.59 448.656 100.289 448.846 99.9879ZM527.777 70.1787C527.541 70.1094 527.306 70.0414 527.07 69.9751C527.306 70.0417 527.542 70.1094 527.777 70.1787ZM449.546 98.9043C449.382 99.1529 449.219 99.4034 449.057 99.6557C449.219 99.4039 449.382 99.1536 449.546 98.9043ZM526.376 69.7833C526.142 69.7202 525.907 69.6587 525.672 69.5985C525.907 69.659 526.142 69.7201 526.376 69.7833ZM450.265 97.8387C450.082 98.1041 449.899 98.3714 449.719 98.6412C449.899 98.372 450.081 98.1049 450.265 97.8387ZM525.024 69.4353C524.903 69.4056 524.783 69.3771 524.662 69.3482C524.783 69.3772 524.904 69.4056 525.024 69.4353ZM450.834 97.028C450.78 97.1046 450.725 97.1813 450.671 97.2582C450.725 97.1813 450.78 97.1047 450.834 97.028ZM473.673 77.2001C473.688 77.1932 473.703 77.1867 473.718 77.1799C473.703 77.1867 473.688 77.1933 473.673 77.2001Z" fill="white"/>
<path fill-rule="evenodd" clip-rule="evenodd" d="M474.144 872.228C471.277 873.106 468.426 874.026 465.551 874.844C449.365 879.376 433.069 879.778 416.82 875.466C388.774 867.989 366.625 852.236 350.834 827.792C344.986 818.624 340.397 808.711 337.189 798.321C333.387 786.16 331.204 773.552 330.694 760.822C329.822 740.407 332.661 720.488 338.427 700.92C342.787 686.231 348.655 672.033 355.938 658.553C362.678 645.868 368.383 632.66 372.995 619.057C378.928 601.947 383.512 584.466 387.963 566.926C391.882 551.43 395.63 535.905 400.234 520.622C403.58 509.065 407.75 497.762 412.712 486.802C419.053 473.152 427.023 460.606 438.094 450.186C446.325 442.431 455.919 436.264 466.391 431.995C478.277 427.094 490.751 423.761 503.498 422.082C522.771 419.618 542.352 422.323 560.236 429.919C572.732 435.116 584.264 442.016 595.413 449.57C607.262 457.586 618.63 466.246 630.165 474.683C643.168 484.175 656.373 493.367 670.286 501.511C684.13 509.619 698.667 516.483 713.725 522.02C731.93 528.64 749.242 537.496 765.264 548.383C778.993 557.686 791.375 568.834 802.063 581.514C810.391 591.397 817.302 602.391 822.597 614.179C830.634 632.224 834.216 651.059 832.209 670.834C830.358 689.153 823.898 705.799 813.603 720.966C806.026 732.14 796.97 741.898 785.86 749.652C781.935 752.42 777.808 754.889 773.515 757.041C772.922 757.342 772.349 757.668 771.796 758.018C771.337 758.559 770.606 758.554 770.01 758.862C769.53 759.141 768.92 759.122 768.553 759.612L757.105 764.006C756.527 763.863 756.1 764.281 755.595 764.411L753.175 765.34C743.292 768.769 733.041 770.372 722.74 771.804C705.31 774.212 687.733 775.327 670.25 777.39C656.099 778.953 642.071 781.486 628.267 784.972C618.748 787.514 609.432 790.761 600.396 794.687C593.164 797.748 586.299 801.684 579.596 805.796C566.385 813.945 553.899 823.116 541.4 832.292C528.194 842.026 514.972 851.717 500.796 859.998C495.026 863.356 489.202 866.575 482.917 868.924C481.621 869.389 480.423 870.071 479.113 870.543C477.417 871.083 475.911 871.994 474.136 872.247" fill="url(#paint0_linear_1_157)"/>
<path d="M442.23 372.732C458.649 365.985 475.849 361.324 493.425 358.862L495.137 358.63L495.384 358.598C525.912 354.696 556.929 358.981 585.256 371.012L585.255 371.013C603.069 378.471 618.414 387.85 631.271 396.559C644.398 405.439 657.717 415.541 667.9 422.99L670.204 424.668C681.66 432.976 692.15 440.151 702.615 446.276C702.62 446.279 702.626 446.283 702.632 446.287C713.207 452.481 724.312 457.723 735.814 461.953C758.893 470.366 780.843 481.6 801.166 495.401C819.176 507.605 835.476 522.155 849.635 538.664L850.999 540.268L851.004 540.273C862.78 554.248 872.615 569.746 880.246 586.346L880.978 587.955L881.06 588.14C893.115 615.206 899.133 645.198 895.883 677.269L895.885 677.27C892.873 707.068 882.287 733.734 866.557 756.909L866.556 756.909C855.409 773.342 841.162 789.046 822.736 801.958L822.737 801.959C822.687 801.995 822.635 802.03 822.584 802.065C822.553 802.087 822.523 802.111 822.491 802.132L822.49 802.132C816.869 806.079 811.001 809.66 804.923 812.853C801.382 815.03 798.161 816.553 795.646 817.593C794.284 818.229 792.898 818.82 791.489 819.361L780.041 823.755C778.61 824.304 777.162 824.798 775.703 825.241C775.189 825.435 774.672 825.624 774.153 825.804C757.725 831.503 741.87 833.76 731.551 835.195C731.533 835.197 731.515 835.2 731.497 835.202C715.315 837.437 688.557 839.674 677.75 840.949C677.592 840.968 677.435 840.986 677.277 841.003C666.179 842.229 655.176 844.207 644.345 846.922C638.048 848.626 631.882 850.786 625.898 853.386C625.714 853.466 625.53 853.545 625.346 853.623C622.593 854.788 618.988 856.717 613.154 860.292C602.523 866.853 592.116 874.455 579.274 883.883L579.273 883.882C566.409 893.363 550.594 905.028 533.078 915.26C533.046 915.279 533.013 915.299 532.98 915.318C527.093 918.743 517.898 924 506.877 928.279C506.5 928.449 506.041 928.656 505.556 928.867C504.497 929.327 502.98 929.958 501.147 930.628C500.978 930.698 500.792 930.776 500.598 930.855C499.159 931.435 495.525 932.9 490.508 934.159C488.406 934.812 485.546 935.696 483.066 936.401C482.98 936.426 482.893 936.45 482.806 936.474C456.392 943.869 428.449 944.766 400.406 937.326C400.382 937.319 400.356 937.313 400.332 937.306C357.379 925.854 321.744 900.704 297.077 862.522C297.009 862.417 296.941 862.311 296.874 862.206C287.945 848.205 280.936 833.069 276.037 817.202L276.039 817.202C270.602 799.745 267.476 781.651 266.745 763.381L266.747 763.381C265.563 735.177 269.542 708.265 277.037 682.829L277.073 682.708C282.649 663.922 290.141 645.758 299.429 628.504C304.548 618.869 308.881 608.837 312.385 598.505L312.527 598.09C317.478 583.812 321.488 568.685 325.929 551.185C329.587 536.717 333.787 519.347 338.888 502.38C343.063 488.04 348.249 474.013 354.409 460.406C354.495 460.217 354.581 460.027 354.669 459.838C363.291 441.279 375.511 421.209 394.209 403.603L394.209 403.602C408.116 390.5 424.315 380.07 441.995 372.828L441.995 372.828C442.04 372.809 442.086 372.791 442.131 372.772C442.164 372.759 442.197 372.744 442.229 372.731L442.23 372.732ZM498.531 931.526C498.831 931.43 499.117 931.335 499.387 931.243C499.102 931.338 498.817 931.435 498.531 931.526ZM747.934 827.344C747.978 827.35 748.021 827.356 748.064 827.362C748.021 827.356 747.978 827.35 747.934 827.344ZM746.737 827.158C746.973 827.197 747.209 827.235 747.444 827.271C747.208 827.235 746.972 827.197 746.737 827.158ZM744.261 826.703C744.993 826.853 745.718 826.988 746.436 827.109C745.71 826.987 744.985 826.851 744.261 826.703ZM743.033 826.439C743.347 826.509 743.659 826.577 743.97 826.642C743.658 826.576 743.345 826.509 743.033 826.439ZM741.757 826.139C742.143 826.234 742.527 826.323 742.909 826.41C742.524 826.323 742.14 826.233 741.757 826.139ZM503.497 422.082C490.751 423.762 478.277 427.094 466.391 431.995C455.919 436.264 446.326 442.431 438.094 450.186C427.024 460.606 419.053 473.152 412.713 486.801C407.75 497.762 403.58 509.064 400.234 520.621C395.631 535.904 391.882 551.43 387.964 566.926C383.513 584.466 378.928 601.947 372.995 619.057C368.383 632.66 362.679 645.868 355.938 658.552C348.656 672.033 342.788 686.232 338.428 700.92C332.662 720.488 329.822 740.408 330.695 760.822C331.204 773.552 333.387 786.16 337.188 798.321C340.397 808.711 344.987 818.624 350.834 827.792C366.626 852.235 388.774 867.989 416.819 875.466C433.068 879.778 449.365 879.376 465.551 874.845C466.988 874.436 468.42 874.001 469.85 873.559L474.136 872.247C475.91 871.994 477.417 871.083 479.113 870.542C480.423 870.071 481.621 869.389 482.917 868.923C489.202 866.574 495.026 863.356 500.796 859.998C514.972 851.717 528.194 842.026 541.4 832.293C553.9 823.116 566.385 813.944 579.597 805.795C586.299 801.684 593.164 797.748 600.396 794.687C609.433 790.761 618.749 787.513 628.267 784.971C642.071 781.486 656.099 778.953 670.251 777.39C687.733 775.327 705.31 774.212 722.74 771.804C733.041 770.372 743.292 768.769 753.175 765.34L755.595 764.411C756.1 764.28 756.527 763.863 757.105 764.006L768.553 759.611C768.92 759.122 769.531 759.141 770.01 758.862C770.606 758.554 771.337 758.558 771.796 758.017C772.349 757.668 772.922 757.342 773.515 757.04C777.809 754.889 781.935 752.419 785.86 749.652C796.97 741.897 806.027 732.14 813.604 720.967C823.898 705.799 830.358 689.153 832.209 670.834C834.216 651.06 830.634 632.224 822.597 614.179C817.301 602.391 810.391 591.397 802.063 581.515C791.375 568.834 778.993 557.685 765.264 548.383C749.242 537.496 731.93 528.641 713.725 522.02C698.667 516.483 684.13 509.619 670.286 501.51C656.373 493.367 643.167 484.175 630.164 474.683C618.629 466.246 607.262 457.586 595.413 449.57C584.264 442.016 572.732 435.116 560.235 429.919C542.352 422.323 522.77 419.619 503.497 422.082Z" fill="white"/>
<path fill-rule="evenodd" clip-rule="evenodd" d="M513.197 130.547C534.721 125.125 554.472 129.551 572.819 141.434C585.387 149.586 595.444 160.288 603.858 172.62C611.019 183.23 616.744 194.741 620.886 206.853C628.581 228.921 631.526 252.366 629.528 275.651C628.324 291.859 624.291 307.732 617.612 322.549C611.543 335.792 603.47 347.616 592.46 357.284C584.719 364.062 576.093 369.277 566.274 372.38C549.289 377.806 532.636 376.615 516.36 369.633C502.461 363.674 491 354.399 481.172 343.053C474.37 335.117 468.525 326.409 463.757 317.107C460.451 310.763 457.609 304.188 455.253 297.433C449.707 281.499 446.642 265.109 446.056 248.265C445.277 230.468 447.621 212.672 452.982 195.684C457.617 181.309 464.379 168.053 474.134 156.44C481.188 147.905 489.878 140.869 499.694 135.746C499.943 135.445 500.321 135.395 500.628 135.245L501.61 134.868C502.073 134.627 502.655 134.657 502.957 134.161L509.704 131.571C510.265 131.752 510.672 131.326 511.164 131.201L512.159 130.819C512.477 130.697 512.796 130.495 513.197 130.547ZM133.019 555.348C130.927 548.949 129.694 542.347 129.009 535.646C127.69 522.621 128.792 509.872 133.42 497.546C138.296 484.04 147.565 472.561 159.741 464.948C169.863 458.588 181.025 455.35 192.907 454.565C206.573 453.634 219.834 455.904 232.649 460.566C252.516 467.772 269.326 479.578 283.707 494.934C291.241 502.988 297.704 511.823 303.098 521.439C305.712 526.098 307.963 530.929 309.995 535.892C313.846 545.224 316.407 555.038 317.607 565.062C319.165 578.503 318.156 591.66 313.412 604.427C308.286 618.763 298.215 630.802 285.01 638.379C275.077 644.159 264.22 646.994 252.781 647.61C237.389 648.426 222.707 645.305 208.571 639.389C194.93 633.623 182.385 625.548 171.488 615.52C160.702 605.766 151.528 594.365 144.308 581.742L140.591 574.951C139.923 573.955 139.604 572.792 138.913 571.82C138.614 571.411 138.518 570.956 138.324 570.492C138.024 569.956 138.047 569.233 137.47 568.805L134.105 560.039C134.351 559.025 133.734 558.246 133.461 557.367C133.272 556.71 132.841 556.083 133.019 555.348ZM223.637 359.438C217.029 342.018 213.491 325.403 213.516 308.07C213.52 294.981 215.547 282.242 220.495 270.048C225.797 256.876 233.862 245.817 245.546 237.572C257.229 229.328 270.305 225.371 284.539 225.095C297.098 224.874 309.122 227.477 320.718 232.147C339.198 239.584 354.821 251.147 368.362 265.636C376.963 274.846 384.353 284.937 390.533 295.912C394.049 302.124 397.159 308.544 399.862 315.174C403.266 323.517 405.902 332.153 407.736 340.975C411.512 359.45 411.832 377.888 406.812 396.218C403.856 407.543 398.404 418.064 390.855 427.011C382.455 436.938 371.316 444.17 358.831 447.806C347.363 451.241 335.675 451.539 323.912 449.535C308.574 446.936 294.621 440.838 281.676 432.323C266.506 422.212 253.333 409.387 242.82 394.493C236.965 386.349 231.875 377.682 227.615 368.603C226.118 365.625 224.79 362.565 223.637 359.438ZM827.594 300.433L828.368 302.452C834.046 319.515 835.608 337.015 834.151 354.834C833.02 368.75 829.757 382.41 824.476 395.335C817.628 412.003 807.898 426.7 794.153 438.543C786.055 445.664 776.601 451.074 766.358 454.448C751.52 459.424 735.386 458.894 720.907 452.954C708.561 447.984 698.583 439.885 690.305 429.643C682.952 420.493 677.255 410.127 673.472 399.015C664.92 374.505 664.117 349.559 669.657 324.319C671.51 315.8 674.232 307.494 677.782 299.531C685.098 283.175 695.166 268.904 709.239 257.585C717.12 251.159 726.174 246.325 735.899 243.353C750.502 238.833 766.229 239.591 780.329 245.493C793.439 250.883 803.827 259.761 812.331 270.964C817.033 277.138 820.956 283.802 823.977 290.97L824.757 293.003C825.633 295.506 826.57 297.987 827.594 300.433Z" fill="url(#paint1_radial_1_157)"/>
<mask id="path-6-outside-1_1_157" maskUnits="userSpaceOnUse" x="477" y="700" width="410" height="259" fill="black">
<rect fill="white" x="477" y="700" width="410" height="259"/>
<path d="M509.56 732.44H554.872L598.904 871.192H601.464L646.776 732.44H691.32L622.968 927H577.4L509.56 732.44ZM703.08 732.44H786.024C799.677 732.44 811.624 735.085 821.864 740.376C832.275 745.496 840.296 752.835 845.928 762.392C851.731 771.949 854.632 782.957 854.632 795.416C854.632 809.581 851.048 821.869 843.88 832.28C836.712 842.52 826.813 849.859 814.184 854.296L854.632 927H806.248L769.64 858.904H745.576V927H703.08V732.44ZM785.512 818.968C793.533 818.968 799.933 816.835 804.712 812.568C809.661 808.131 812.136 802.413 812.136 795.416C812.136 788.589 809.661 783.043 804.712 778.776C799.933 774.509 793.533 772.376 785.512 772.376H745.576V818.968H785.512Z"/>
</mask>
<path d="M509.56 732.44H554.872L598.904 871.192H601.464L646.776 732.44H691.32L622.968 927H577.4L509.56 732.44ZM703.08 732.44H786.024C799.677 732.44 811.624 735.085 821.864 740.376C832.275 745.496 840.296 752.835 845.928 762.392C851.731 771.949 854.632 782.957 854.632 795.416C854.632 809.581 851.048 821.869 843.88 832.28C836.712 842.52 826.813 849.859 814.184 854.296L854.632 927H806.248L769.64 858.904H745.576V927H703.08V732.44ZM785.512 818.968C793.533 818.968 799.933 816.835 804.712 812.568C809.661 808.131 812.136 802.413 812.136 795.416C812.136 788.589 809.661 783.043 804.712 778.776C799.933 774.509 793.533 772.376 785.512 772.376H745.576V818.968H785.512Z" fill="#474B50"/>
<path d="M509.56 732.44V700.44C499.196 700.44 489.474 705.459 483.472 713.908C477.47 722.357 475.932 733.19 479.344 742.976L509.56 732.44ZM554.872 732.44L585.373 722.761C581.155 709.47 568.816 700.44 554.872 700.44V732.44ZM598.904 871.192L568.403 880.871C572.621 894.162 584.96 903.192 598.904 903.192V871.192ZM601.464 871.192V903.192C615.31 903.192 627.585 894.288 631.883 881.126L601.464 871.192ZM646.776 732.44V700.44C632.93 700.44 620.655 709.344 616.357 722.506L646.776 732.44ZM691.32 732.44L721.511 743.047C724.951 733.256 723.429 722.406 717.43 713.939C711.43 705.472 701.697 700.44 691.32 700.44V732.44ZM622.968 927V959C636.552 959 648.656 950.423 653.159 937.607L622.968 927ZM577.4 927L547.184 937.536C551.666 950.389 563.788 959 577.4 959V927ZM509.56 732.44V764.44H554.872V732.44V700.44H509.56V732.44ZM554.872 732.44L524.371 742.119L568.403 880.871L598.904 871.192L629.405 861.513L585.373 722.761L554.872 732.44ZM598.904 871.192V903.192H601.464V871.192V839.192H598.904V871.192ZM601.464 871.192L631.883 881.126L677.195 742.374L646.776 732.44L616.357 722.506L571.045 861.258L601.464 871.192ZM646.776 732.44V764.44H691.32V732.44V700.44H646.776V732.44ZM691.32 732.44L661.129 721.833L592.777 916.393L622.968 927L653.159 937.607L721.511 743.047L691.32 732.44ZM622.968 927V895H577.4V927V959H622.968V927ZM577.4 927L607.616 916.464L539.776 721.904L509.56 732.44L479.344 742.976L547.184 937.536L577.4 927ZM703.08 732.44V700.44C685.407 700.44 671.08 714.767 671.08 732.44H703.08ZM821.864 740.376L807.175 768.806C807.363 768.903 807.552 768.998 807.742 769.091L821.864 740.376ZM845.928 762.392L818.359 778.638C818.43 778.759 818.502 778.879 818.575 778.999L845.928 762.392ZM843.88 832.28L870.095 850.631C870.143 850.563 870.19 850.495 870.237 850.427L843.88 832.28ZM814.184 854.296L803.576 824.105C794.677 827.232 787.611 834.126 784.265 842.945C780.919 851.764 781.634 861.61 786.22 869.853L814.184 854.296ZM854.632 927V959C865.974 959 876.468 952.997 882.217 943.22C887.965 933.443 888.11 921.354 882.596 911.443L854.632 927ZM806.248 927L778.063 942.152C783.641 952.528 794.468 959 806.248 959V927ZM769.64 858.904L797.825 843.752C792.247 833.376 781.42 826.904 769.64 826.904V858.904ZM745.576 858.904V826.904C727.903 826.904 713.576 841.231 713.576 858.904H745.576ZM745.576 927V959C763.249 959 777.576 944.673 777.576 927H745.576ZM703.08 927H671.08C671.08 944.673 685.407 959 703.08 959V927ZM804.712 812.568L826.025 836.438C826.041 836.423 826.057 836.409 826.073 836.394L804.712 812.568ZM804.712 778.776L783.4 802.646C783.538 802.77 783.677 802.892 783.818 803.013L804.712 778.776ZM745.576 772.376V740.376C727.903 740.376 713.576 754.703 713.576 772.376H745.576ZM745.576 818.968H713.576C713.576 836.641 727.903 850.968 745.576 850.968V818.968ZM703.08 732.44V764.44H786.024V732.44V700.44H703.08V732.44ZM786.024 732.44V764.44C795.506 764.44 802.243 766.257 807.175 768.806L821.864 740.376L836.553 711.946C821.005 703.913 803.849 700.44 786.024 700.44V732.44ZM821.864 740.376L807.742 769.091C812.82 771.589 816.046 774.714 818.359 778.638L845.928 762.392L873.497 746.146C864.546 730.955 851.729 719.403 835.986 711.661L821.864 740.376ZM845.928 762.392L818.575 778.999C821 782.993 822.632 788.126 822.632 795.416H854.632H886.632C886.632 777.789 882.462 760.905 873.281 745.785L845.928 762.392ZM854.632 795.416H822.632C822.632 803.914 820.58 809.693 817.523 814.133L843.88 832.28L870.237 850.427C881.516 834.046 886.632 815.249 886.632 795.416H854.632ZM843.88 832.28L817.665 813.929C814.612 818.29 810.367 821.719 803.576 824.105L814.184 854.296L824.792 884.487C843.26 877.998 858.812 866.75 870.095 850.631L843.88 832.28ZM814.184 854.296L786.22 869.853L826.668 942.557L854.632 927L882.596 911.443L842.148 838.739L814.184 854.296ZM854.632 927V895H806.248V927V959H854.632V927ZM806.248 927L834.433 911.848L797.825 843.752L769.64 858.904L741.455 874.056L778.063 942.152L806.248 927ZM769.64 858.904V826.904H745.576V858.904V890.904H769.64V858.904ZM745.576 858.904H713.576V927H745.576H777.576V858.904H745.576ZM745.576 927V895H703.08V927V959H745.576V927ZM703.08 927H735.08V732.44H703.08H671.08V927H703.08ZM785.512 818.968V850.968C799.338 850.968 814.01 847.166 826.025 836.438L804.712 812.568L783.4 788.698C783.877 788.271 784.397 787.899 784.925 787.597C785.449 787.297 785.896 787.114 786.209 787.01C786.821 786.806 786.715 786.968 785.512 786.968V818.968ZM804.712 812.568L826.073 836.394C838.186 825.534 844.136 810.964 844.136 795.416H812.136H780.136C780.136 795.081 780.211 793.861 780.913 792.241C781.632 790.58 782.62 789.396 783.351 788.742L804.712 812.568ZM812.136 795.416H844.136C844.136 779.755 837.959 765.188 825.606 754.539L804.712 778.776L783.818 803.013C783.001 802.309 781.881 801.021 781.057 799.174C780.249 797.364 780.136 795.937 780.136 795.416H812.136ZM804.712 778.776L826.025 754.906C814.01 744.178 799.338 740.376 785.512 740.376V772.376V804.376C786.715 804.376 786.821 804.538 786.209 804.334C785.896 804.23 785.449 804.047 784.925 803.747C784.397 803.445 783.877 803.073 783.4 802.646L804.712 778.776ZM785.512 772.376V740.376H745.576V772.376V804.376H785.512V772.376ZM745.576 772.376H713.576V818.968H745.576H777.576V772.376H745.576ZM745.576 818.968V850.968H785.512V818.968V786.968H745.576V818.968Z" fill="white" mask="url(#path-6-outside-1_1_157)"/>
</g>
<defs>
<linearGradient id="paint0_linear_1_157" x1="384.639" y1="179.579" x2="628.003" y2="813.564" gradientUnits="userSpaceOnUse">
<stop stop-color="#FFD16E"/>
<stop offset="0.663462" stop-color="#FFC100"/>
<stop offset="1" stop-color="#F8A41E"/>
</linearGradient>
<radialGradient id="paint1_radial_1_157" cx="0" cy="0" r="1" gradientUnits="userSpaceOnUse" gradientTransform="translate(530.5 559.07) rotate(-108.163) scale(412.047 775.373)">
<stop offset="0.399038" stop-color="#76AADA"/>
<stop offset="1" stop-color="#C2DEF9"/>
</radialGradient>
<clipPath id="clip0_1_157">
<rect width="1024" height="1024" fill="white"/>
</clipPath>
</defs>
</svg>
